# xmcd
# Track frame offsets:
# 150
# 13425
# 23950
# 41265
# 55757
# 68725
# 85200
# 103950
# 116275
# 129450
# 144057
# 160845
# 175727
# 191520
# 205035
# 220365
# 235157
# 252632
# 267132
# 281725
#
# Disc length: 3950 seconds
# Revision: 3
# Processed by: cddbd v1.5.1PL2 Copyright (c) Steve Scherf et al.
# Submitted via: VisiTrax 2.10.0.248 - For more info visit www.synapsa.com
#
DISCID=1c0f6c14
DTITLE=Parton, Dolly - I Will Always Love You...And More
DYEAR=1995
DGENRE=Country
TTITLE0=I Will Always Love You
TTITLE1=Love Is Like A Butterfly
TTITLE2=Real Love
TTITLE3=But You Know I Love You
TTITLE4=Higher And Higher
TTITLE5=She Don't Love You
TTITLE6=Islands In The Stream
TTITLE7=Elusive Butterfly
TTITLE8=Have You Come Again
TTITLE9=You're The Only One
TTITLE10=Save The Last Dance For Me
TTITLE11=We'll Sing In The Sunshine
TTITLE12=Heartbreaker
TTITLE13=I Really Don't Want to Know
TTITLE14=Think About Love
TTITLE15=It's All Wrong But It's All Right
TTITLE16=One Of These Days
TTITLE17=We Used To
TTITLE18=Almost In Love
TTITLE19=Sweet Summer Lovin'
EXTD=BMG Australia\n74321268862\nCompilation published 1995
EXTT0=
EXTT1=
EXTT2=
EXTT3=
EXTT4=
EXTT5=
EXTT6=
EXTT7=
EXTT8=
EXTT9=
EXTT10=
EXTT11=
EXTT12=
EXTT13=
EXTT14=
EXTT15=
EXTT16=
EXTT17=
EXTT18=
EXTT19=
PLAYORDER=
